<?xml version="1.0" standalone="no"?>
<!DOCTYPE svg PUBLIC "-//W3C//DTD SVG 20010904//EN"
 "http://www.w3.org/TR/2001/REC-SVG-20010904/DTD/svg10.dtd">
<svg version="1.0" xmlns="http://www.w3.org/2000/svg"
 width="663.000000pt" height="725.000000pt" viewBox="0 0 663.000000 725.000000"
 preserveAspectRatio="xMidYMid meet">

<g transform="translate(0.000000,725.000000) scale(0.100000,-0.100000)"
fill="#000000" stroke="none">
<path d="M1306 5878 c4 -7 18 -27 31 -44 13 -17 34 -62 47 -100 53 -158 51
-84 51 -1849 l0 -1640 -23 -90 c-25 -102 -46 -157 -77 -200 -12 -16 -25 -36
-29 -43 -6 -9 117 -12 598 -12 l605 0 -31 46 c-40 59 -72 155 -92 273 -14 82
-16 220 -15 1040 1 849 2 942 16 911 28 -67 196 -469 430 -1030 47 -113 114
-272 148 -355 35 -82 115 -275 179 -428 64 -153 122 -290 130 -305 l14 -26 17
39 c9 22 39 94 67 160 27 66 68 163 90 215 22 52 66 158 98 235 59 143 239
575 357 855 36 85 80 191 98 235 104 253 167 401 176 410 7 6 9 -323 6 -955
-3 -832 -6 -975 -19 -1035 -24 -103 -54 -185 -88 -233 -16 -23 -30 -45 -30
-47 0 -3 270 -5 600 -5 330 0 600 3 600 7 0 3 -12 21 -26 40 -34 44 -69 147
-88 258 -14 79 -16 281 -16 1697 0 1545 1 1611 19 1707 21 107 51 187 88 238
12 17 23 34 23 37 0 4 -239 5 -531 4 l-532 -3 -98 -225 c-54 -124 -104 -241
-113 -260 -36 -82 -161 -370 -186 -430 -15 -36 -59 -137 -98 -225 -38 -88
-121 -279 -185 -425 -63 -146 -141 -325 -173 -399 l-59 -134 -22 49 c-12 27
-85 195 -163 374 -77 179 -147 339 -155 355 -7 17 -52 120 -100 230 -48 110
-102 234 -120 275 -18 41 -63 145 -100 230 -37 85 -83 190 -101 233 -68 156
-102 233 -129 295 l-28 62 -534 0 c-425 0 -533 -3 -527 -12z m3394 -322 c6 -6
10 -21 10 -34 0 -15 28 -59 75 -117 41 -52 75 -98 75 -104 0 -6 -9 -11 -20
-11 -11 0 -20 -4 -20 -10 0 -5 9 -10 20 -10 11 0 20 -7 20 -15 0 -8 -9 -15
-20 -15 -11 0 -20 -4 -20 -10 0 -5 9 -10 20 -10 11 0 20 -5 20 -11 0 -6 -9
-13 -20 -16 -11 -3 -20 -9 -20 -14 0 -5 9 -9 20 -9 11 0 20 -7 20 -15 0 -8 -9
-15 -20 -15 -11 0 -20 -4 -20 -10 0 -5 16 -10 35 -10 19 0 35 -4 35 -10 0 -5
-12 -10 -26 -10 -14 0 -23 -4 -19 -10 3 -5 15 -10 26 -10 28 0 19 -23 -12 -31
l-24 -6 28 -8 c28 -7 32 -29 6 -31 -31 -3 -33 -6 -10 -13 31 -8 40 -31 12 -31
-28 0 -36 -18 -9 -22 28 -4 36 -28 9 -28 -28 0 -36 -18 -9 -22 28 -4 36 -28 9
-28 -11 0 -23 -4 -26 -10 -4 -6 5 -10 19 -10 16 0 26 -6 26 -15 0 -8 -9 -15
-19 -15 -11 0 -23 -4 -26 -10 -4 -6 5 -10 19 -10 16 0 26 -6 26 -15 0 -9 -9
-15 -25 -15 -14 0 -25 -4 -25 -10 0 -5 11 -10 25 -10 16 0 25 -6 25 -15 0 -9
-9 -15 -25 -15 -42 0 -28 -17 20 -24 48 -8 62 -26 20 -26 -14 0 -25 -4 -25
-10 0 -5 11 -10 25 -10 16 0 25 -6 25 -15 0 -9 -9 -15 -25 -15 -14 0 -25 -4
-25 -10 0 -5 11 -10 25 -10 16 0 25 -6 25 -15 0 -9 -9 -15 -25 -15 -14 0 -25
-4 -25 -10 0 -5 11 -10 25 -10 16 0 25 -6 25 -15 0 -9 -9 -15 -25 -15 -14 0
-25 -4 -25 -10 0 -5 12 -10 26 -10 31 0 28 -23 -4 -28 -30 -5 -28 -22 3 -22
16 0 25 -6 25 -15 0 -9 -9 -15 -25 -15 -14 0 -25 -4 -25 -10 0 -5 12 -10 26
-10 32 0 27 -22 -7 -31 l-24 -6 28 -8 c27 -7 33 -29 9 -31 -7 -1 -16 -2 -22
-3 -5 0 -10 -5 -10 -11 0 -5 3 -9 8 -9 4 1 15 1 25 0 27 -2 20 -21 -8 -21 -31
0 -33 -17 -3 -22 32 -5 35 -28 4 -28 -14 0 -26 -4 -26 -10 0 -5 11 -10 25 -10
16 0 25 -6 25 -15 0 -9 -9 -15 -25 -15 -14 0 -25 -4 -25 -10 0 -5 11 -10 25
-10 16 0 25 -6 25 -15 0 -9 -9 -15 -25 -15 -14 0 -25 -4 -25 -10 0 -5 11 -10
25 -10 16 0 25 -6 25 -15 0 -9 -9 -15 -25 -15 -14 0 -25 -4 -25 -10 0 -5 11
-10 25 -10 16 0 25 -6 25 -15 0 -9 -9 -15 -25 -15 -14 0 -25 -4 -25 -10 0 -5
11 -10 25 -10 16 0 25 -6 25 -15 0 -9 -9 -15 -25 -15 -14 0 -25 -4 -25 -10 0
-5 11 -10 25 -10 16 0 25 -6 25 -15 0 -9 -9 -15 -25 -15 -14 0 -25 -4 -25 -10
0 -5 11 -10 25 -10 16 0 25 -6 25 -15 0 -9 -9 -15 -25 -15 -14 0 -25 -4 -25
-10 0 -5 11 -10 25 -10 16 0 25 -6 25 -15 0 -9 -9 -15 -25 -15 -14 0 -25 -4
-25 -10 0 -5 15 -10 34 -10 19 0 41 -3 50 -6 26 -10 18 -24 -14 -24 -16 0 -30
-4 -30 -10 0 -5 14 -10 30 -10 20 0 30 -5 30 -15 0 -10 -10 -15 -30 -15 -16 0
-30 -4 -30 -10 0 -5 14 -10 31 -10 38 0 35 -24 -4 -28 -37 -4 -34 -22 3 -22
17 0 30 -4 30 -10 0 -10 -21 -14 -47 -11 -7 1 -13 -5 -13 -14 0 -10 10 -15 31
-15 35 0 36 -24 1 -26 -36 -2 -39 -6 -8 -13 41 -9 46 -31 7 -31 -38 0 -41 -17
-4 -22 39 -4 42 -28 4 -28 -17 0 -31 -4 -31 -10 0 -5 14 -10 30 -10 20 0 30
-5 30 -15 0 -10 -10 -15 -30 -15 -37 0 -40 -18 -3 -22 39 -4 42 -28 4 -28 -17
0 -31 -4 -31 -10 0 -5 14 -10 30 -10 20 0 30 -5 30 -15 0 -10 -10 -15 -30 -15
-16 0 -30 -4 -30 -10 0 -5 14 -10 30 -10 20 0 30 -5 30 -15 0 -10 -10 -15 -30
-15 -16 0 -30 -4 -30 -10 0 -5 14 -10 30 -10 20 0 30 -5 30 -15 0 -10 -10 -15
-30 -15 -16 0 -30 -4 -30 -10 0 -5 14 -10 30 -10 20 0 30 -5 30 -15 0 -10 -10
-15 -30 -15 -16 0 -30 -4 -30 -10 0 -5 14 -10 30 -10 20 0 30 -5 30 -15 0 -10
-10 -15 -30 -15 -16 0 -30 -4 -30 -10 0 -5 14 -10 30 -10 20 0 30 -5 30 -15 0
-10 -10 -15 -30 -15 -16 0 -30 -4 -30 -10 0 -5 14 -10 31 -10 38 0 35 -24 -4
-28 -37 -5 -34 -22 4 -22 38 0 35 -24 -4 -28 -37 -5 -34 -22 4 -22 39 0 34
-22 -7 -31 -31 -7 -28 -11 8 -13 36 -2 33 -25 -4 -33 l-33 -7 29 -6 c41 -7 46
-30 7 -30 -38 0 -41 -17 -4 -22 39 -4 42 -28 4 -28 -38 0 -41 -17 -4 -22 39
-4 42 -28 4 -28 -38 0 -41 -17 -4 -22 39 -4 42 -28 4 -28 -17 0 -31 -4 -31
-10 0 -5 14 -10 30 -10 20 0 30 -5 30 -15 0 -10 -10 -15 -30 -15 -16 0 -30 -4
-30 -10 0 -5 14 -10 30 -10 20 0 30 -5 30 -15 0 -10 -11 -15 -35 -15 -19 0
-35 -4 -35 -10 0 -5 16 -10 35 -10 24 0 35 -5 35 -15 0 -10 -10 -15 -30 -15
-16 0 -30 -4 -30 -10 0 -5 14 -10 30 -10 20 0 30 -5 30 -15 0 -10 -10 -15 -30
-15 -16 0 -30 -4 -30 -10 0 -5 14 -10 30 -10 20 0 30 -5 30 -15 0 -10 -10 -15
-30 -15 -16 0 -30 -4 -30 -10 0 -5 14 -10 31 -10 38 0 35 -24 -4 -28 -37 -5
-34 -22 4 -22 41 0 33 -24 -9 -28 -40 -4 -32 -22 9 -22 38 0 34 -24 -4 -28
-37 -5 -34 -22 4 -22 39 0 34 -22 -7 -31 -16 -4 -24 -8 -19 -9 6 -1 15 -3 20
-5 6 -1 16 -3 23 -3 26 -4 10 -22 -19 -22 -31 0 -38 -24 -8 -26 33 -2 39 -5
39 -14 0 -5 -13 -10 -30 -10 -37 0 -40 -18 -3 -22 39 -4 42 -28 4 -28 -38 0
-41 -17 -4 -22 39 -4 42 -28 4 -28 -17 0 -31 -4 -31 -10 0 -5 14 -10 30 -10
20 0 30 -5 30 -15 0 -10 -10 -15 -30 -15 -16 0 -30 -4 -30 -10 0 -5 14 -10 30
-10 20 0 30 -5 30 -15 0 -10 -10 -15 -30 -15 -16 0 -30 -4 -30 -10 0 -5 14
-10 32 -10 23 0 29 -3 21 -11 -6 -6 -26 -9 -44 -7 l-34 3 -2 910 c-1 501 -3
920 -3 933 0 12 -4 22 -10 22 -6 0 -11 -322 -12 -932 l-3 -933 -50 0 -50 0 -3
931 c-2 729 -5 934 -15 942 -9 8 -12 -181 -12 -931 l0 -942 -52 -3 -53 -3 -2
1383 c-2 761 -4 1185 -5 944 -2 -242 -7 -444 -12 -450 -5 -6 -9 -425 -8 -934
0 -608 -4 -927 -10 -933 -6 -6 -30 -9 -54 -7 l-44 3 -2 910 c-2 501 -3 920 -3
933 0 12 -4 22 -10 22 -6 0 -11 -322 -12 -932 l-3 -933 -37 -3 c-22 -2 -38 1
-38 7 0 6 14 11 30 11 17 0 30 5 30 10 0 6 -13 10 -30 10 -20 0 -30 5 -30 15
0 10 10 15 30 15 17 0 30 5 30 10 0 6 -13 10 -30 10 -20 0 -30 5 -30 15 0 10
10 15 31 15 17 0 28 4 24 10 -3 6 -17 10 -31 10 -15 0 -24 6 -24 15 0 10 10
15 30 15 17 0 30 5 30 10 0 6 -13 10 -30 10 -20 0 -30 5 -30 15 0 10 10 15 31
15 17 0 28 4 24 10 -3 6 -17 10 -31 10 -15 0 -24 6 -24 15 0 10 10 15 32 15
17 0 28 3 24 8 -4 4 -17 7 -29 7 -33 0 -27 29 8 36 l30 7 -32 1 c-40 1 -47 31
-9 31 14 0 28 4 31 10 4 6 -7 10 -24 10 -21 0 -31 5 -31 15 0 10 10 15 30 15
17 0 30 5 30 10 0 6 -13 10 -30 10 -20 0 -30 5 -30 15 0 10 10 15 30 15 17 0
30 5 30 10 0 6 -13 10 -30 10 -20 0 -30 5 -30 15 0 10 10 15 30 15 17 0 30 5
30 10 0 6 -13 10 -30 10 -20 0 -30 5 -30 15 0 10 10 15 30 15 17 0 30 5 30 10
0 6 -13 10 -30 10 -20 0 -30 5 -30 15 0 10 10 15 30 15 17 0 30 5 30 10 0 6
-13 10 -30 10 -20 0 -30 5 -30 15 0 10 10 15 30 15 17 0 30 5 30 10 0 6 -13
10 -30 10 -20 0 -30 5 -30 15 0 10 10 15 30 15 17 0 30 5 30 10 0 6 -13 10
-30 10 -20 0 -30 5 -30 15 0 10 10 15 30 15 17 0 30 5 30 10 0 6 -13 10 -30
10 -20 0 -30 5 -30 15 0 10 10 15 30 15 17 0 30 5 30 10 0 6 -13 10 -30 10
-20 0 -30 5 -30 15 0 10 10 15 30 15 17 0 30 5 30 10 0 6 -13 10 -30 10 -20 0
-30 5 -30 15 0 10 10 15 31 15 17 0 28 4 24 10 -3 6 -17 10 -31 10 -38 0 -31
30 9 31 l32 1 -30 7 c-18 4 -31 14 -33 25 -3 13 0 17 9 14 8 -3 23 -2 34 3 16
6 14 8 -12 8 -40 1 -48 31 -9 31 14 0 28 5 31 10 4 6 -7 10 -24 10 -21 0 -31
5 -31 15 0 9 9 15 24 15 14 0 28 5 31 10 4 6 -7 10 -24 10 -21 0 -31 5 -31 15
0 9 9 15 24 15 14 0 28 5 31 10 4 6 -7 10 -24 10 -21 0 -31 5 -31 15 0 10 10
15 30 15 17 0 30 5 30 10 0 6 -13 10 -30 10 -20 0 -30 5 -30 15 0 10 10 15 30
15 17 0 30 5 30 10 0 6 -13 10 -30 10 -20 0 -30 5 -30 15 0 10 10 15 30 15 17
0 30 5 30 10 0 6 -13 10 -30 10 -20 0 -30 5 -30 15 0 10 10 15 30 15 17 0 30
5 30 10 0 6 -13 10 -30 10 -20 0 -30 5 -30 15 0 10 10 15 30 15 17 0 30 5 30
10 0 6 -13 10 -30 10 -20 0 -30 5 -30 15 0 10 10 15 30 15 17 0 30 5 30 10 0
6 -13 10 -30 10 -20 0 -30 5 -30 15 0 10 10 15 30 15 17 0 30 5 30 10 0 6 -13
10 -30 10 -20 0 -30 5 -30 15 0 10 10 15 31 15 17 0 28 4 24 10 -3 6 -17 10
-31 10 -15 0 -24 6 -24 15 0 10 10 15 31 15 17 0 28 4 24 10 -3 6 -17 10 -31
10 -15 0 -24 6 -24 15 0 10 10 15 32 15 35 0 34 8 -2 13 -33 5 -37 25 -5 29
31 4 34 23 3 23 -31 1 -34 23 -3 27 14 2 24 7 23 13 -2 5 -13 8 -25 7 -16 -2
-23 2 -23 12 0 10 9 16 24 16 14 0 28 5 31 10 4 6 -7 10 -24 10 -21 0 -31 5
-31 15 0 9 9 15 24 15 14 0 28 5 31 10 4 6 -7 10 -24 10 -33 0 -41 14 -15 24
9 3 31 6 50 6 19 0 34 5 34 10 0 6 -11 10 -25 10 -16 0 -25 6 -25 15 0 9 9 15
25 15 14 0 25 5 25 10 0 6 -11 10 -25 10 -16 0 -25 6 -25 15 0 9 9 15 25 15
14 0 25 5 25 10 0 6 -11 10 -25 10 -16 0 -25 6 -25 15 0 9 9 15 25 15 33 0 32
18 0 22 -14 2 -26 8 -26 13 0 6 12 11 26 13 32 4 33 22 0 22 -16 0 -25 6 -25
15 0 9 9 15 25 15 14 0 25 5 25 10 0 6 -11 10 -25 10 -16 0 -25 6 -25 15 0 9
9 15 25 15 14 0 25 5 25 10 0 6 -11 10 -25 10 -16 0 -25 6 -25 15 0 9 10 15
26 15 14 0 23 4 19 10 -3 6 -15 10 -26 10 -30 0 -23 28 9 32 27 4 23 8 -24 23
-22 7 -7 25 22 25 14 0 22 4 19 10 -3 6 -15 10 -26 10 -28 0 -23 17 9 25 l27
8 -28 11 c-30 11 -32 28 -3 32 29 4 31 14 3 14 -17 0 -27 5 -27 15 0 8 9 15
19 15 11 0 23 5 26 10 4 6 -5 10 -19 10 -16 0 -26 6 -26 15 0 8 9 15 19 15 11
0 23 5 26 10 4 6 -5 10 -19 10 -16 0 -26 6 -26 15 0 9 9 15 25 15 14 0 25 5
25 10 0 6 -11 10 -25 10 -16 0 -25 6 -25 15 0 8 9 15 19 15 11 0 23 5 26 10 4
6 -5 10 -19 10 -16 0 -26 6 -26 15 0 8 9 15 19 15 11 0 23 5 26 10 4 6 -5 10
-19 10 -16 0 -26 6 -26 15 0 9 9 15 25 15 14 0 25 5 25 10 0 6 -11 10 -25 10
-40 0 -29 19 15 26 41 7 56 24 20 24 -11 0 -20 7 -20 15 0 8 9 15 20 15 11 0
20 5 20 10 0 6 -9 10 -20 10 -27 0 -25 28 3 33 l22 4 -22 8 c-13 4 -23 13 -23
20 0 8 10 16 23 18 l22 4 -22 8 c-13 4 -23 13 -23 20 0 8 10 16 23 18 l22 4
-22 8 c-13 4 -23 13 -23 20 0 8 10 16 23 18 l22 4 -22 8 c-13 4 -23 14 -23 21
0 8 10 15 23 15 l22 2 -23 4 c-24 5 -28 38 -5 38 6 0 15 3 19 8 4 4 -2 7 -14
7 -29 0 -28 26 1 35 l22 8 -22 4 c-33 6 -28 23 7 23 17 0 30 5 30 10 0 6 -7
10 -15 10 -8 0 -15 7 -15 15 0 8 7 15 15 15 22 0 18 17 -5 23 -11 3 -20 10
-20 16 0 6 9 11 20 11 11 0 20 5 20 10 0 6 -7 10 -15 10 -8 0 -15 7 -15 15 0
8 7 15 15 15 8 0 15 5 15 10 0 6 -9 10 -20 10 -11 0 -20 5 -20 10 0 6 36 54
80 107 60 73 78 102 74 118 -3 13 1 27 11 35 13 11 16 35 15 144 -1 72 0 136
2 141 1 6 4 -55 5 -135 2 -79 8 -149 13 -154z m-2632 -802 c53 -51 71 -75 66
-87 -3 -9 -12 -17 -18 -17 -23 0 -125 85 -163 135 l-38 50 -7 -40 c-25 -148
-43 -1601 -21 -1680 5 -16 7 -43 4 -58 -5 -25 -8 -26 -23 -15 -10 7 -22 36
-28 63 -13 62 -32 741 -25 890 3 61 7 211 10 335 3 124 7 243 10 265 2 22 7
69 10 104 3 35 8 68 11 72 12 20 -13 6 -40 -21 -28 -28 -179 -110 -204 -110
-26 0 -9 18 55 55 81 48 213 177 213 209 0 43 15 38 65 -20 27 -33 83 -91 123
-130z m288 169 c36 -34 75 -93 176 -270 55 -98 130 -230 166 -293 77 -135 271
-520 272 -537 0 -7 6 -16 13 -20 7 -4 30 -44 51 -88 21 -44 51 -105 65 -135
15 -30 35 -81 45 -113 19 -59 24 -64 31 -31 14 69 116 223 148 224 8 0 -28
-73 -49 -100 -18 -22 -52 -116 -69 -188 -11 -47 -12 -69 -4 -84 21 -39 19 -39
-171 31 -47 17 -97 31 -111 31 -35 0 -64 23 -55 45 5 15 15 16 74 10 37 -4 93
-18 124 -31 32 -13 62 -24 67 -24 14 0 -20 73 -168 370 -160 320 -326 639
-401 770 -21 36 -75 130 -120 210 -45 80 -90 154 -100 165 -10 11 -23 32 -29
48 -9 23 -8 27 8 27 10 0 27 -8 37 -17z m1834 -205 c18 -57 46 -129 62 -162
27 -53 28 -60 14 -74 -12 -12 -18 -13 -30 -3 -25 21 -72 112 -90 174 -9 31
-20 57 -24 57 -9 0 -122 -229 -122 -246 0 -5 -5 -15 -11 -21 -5 -5 -46 -93
-91 -194 -228 -521 -421 -1001 -457 -1136 -12 -45 -35 -57 -46 -24 -10 33 24
148 107 359 44 114 104 269 134 344 29 75 57 145 63 155 18 34 81 174 81 181
0 4 18 42 40 84 22 43 41 88 44 100 2 13 13 41 24 63 11 22 39 81 62 130 24
50 58 114 76 143 21 32 29 52 21 52 -7 0 -17 -4 -22 -9 -18 -16 -79 -30 -160
-36 -101 -7 -132 8 -49 24 110 21 149 33 226 69 46 20 80 43 83 53 13 41 33
16 65 -83z m-1850 -1738 c23 -15 -5 -30 -57 -30 -24 0 -43 -4 -43 -10 0 -5 20
-10 45 -10 25 0 45 -5 45 -11 0 -6 -9 -8 -20 -4 -14 5 -20 2 -20 -9 0 -9 9
-16 20 -16 11 0 20 -3 20 -7 0 -5 -21 -8 -47 -8 -40 0 -48 -3 -50 -20 -2 -11
0 -15 2 -10 6 12 95 7 95 -5 0 -5 -8 -6 -19 -3 -10 3 -22 0 -25 -6 -5 -7 3
-11 18 -11 14 0 26 -4 26 -10 0 -5 -20 -10 -45 -10 -25 0 -45 -4 -45 -10 0 -5
20 -10 45 -10 l45 0 0 -49 0 -49 -47 2 c-30 1 -48 -4 -51 -12 -3 -10 4 -13 24
-11 44 3 74 0 74 -9 0 -4 -20 -6 -45 -4 -28 3 -45 0 -45 -7 0 -6 18 -11 43
-11 44 0 83 -17 60 -27 -16 -6 -19 -648 -3 -658 35 -22 -23 -25 -435 -25 -389
0 -445 2 -445 15 0 8 5 15 10 15 15 0 13 633 -2 648 -9 9 -9 15 0 24 7 7 12
42 12 88 l0 75 45 -3 c28 -3 45 0 45 7 0 6 -19 11 -45 11 l-45 0 0 48 c0 46 1
47 30 47 16 0 29 5 29 10 0 6 -13 10 -29 10 -17 0 -30 4 -30 10 0 6 19 9 45 7
28 -3 45 0 45 7 0 6 -18 11 -42 11 -48 0 -74 12 -64 29 9 14 854 15 876 1z"/>
<path d="M4607 5406 c-37 -46 -67 -87 -67 -90 0 -3 63 -6 140 -6 77 0 140 3
140 8 0 11 -130 172 -139 172 -4 0 -38 -38 -74 -84z"/>
<path d="M4580 5280 c0 -5 9 -10 20 -10 11 0 20 5 20 10 0 6 -9 10 -20 10 -11
0 -20 -4 -20 -10z"/>
<path d="M4660 5280 c0 -5 9 -10 20 -10 11 0 20 5 20 10 0 6 -9 10 -20 10 -11
0 -20 -4 -20 -10z"/>
<path d="M4740 5280 c0 -5 9 -10 20 -10 11 0 20 5 20 10 0 6 -9 10 -20 10 -11
0 -20 -4 -20 -10z"/>
<path d="M4580 5230 c0 -5 9 -10 20 -10 11 0 20 5 20 10 0 6 -9 10 -20 10 -11
0 -20 -4 -20 -10z"/>
<path d="M4660 5230 c0 -5 9 -10 20 -10 11 0 20 5 20 10 0 6 -9 10 -20 10 -11
0 -20 -4 -20 -10z"/>
<path d="M4740 5230 c0 -5 9 -10 20 -10 11 0 20 5 20 10 0 6 -9 10 -20 10 -11
0 -20 -4 -20 -10z"/>
<path d="M4580 5180 c0 -5 9 -10 20 -10 11 0 20 5 20 10 0 6 -9 10 -20 10 -11
0 -20 -4 -20 -10z"/>
<path d="M4660 5180 c0 -5 9 -10 20 -10 11 0 20 5 20 10 0 6 -9 10 -20 10 -11
0 -20 -4 -20 -10z"/>
<path d="M4740 5180 c0 -5 9 -10 20 -10 11 0 20 5 20 10 0 6 -9 10 -20 10 -11
0 -20 -4 -20 -10z"/>
<path d="M4580 5130 c0 -5 9 -10 20 -10 11 0 20 5 20 10 0 6 -9 10 -20 10 -11
0 -20 -4 -20 -10z"/>
<path d="M4660 5130 c0 -5 9 -10 20 -10 11 0 20 5 20 10 0 6 -9 10 -20 10 -11
0 -20 -4 -20 -10z"/>
<path d="M4740 5130 c0 -5 9 -10 20 -10 11 0 20 5 20 10 0 6 -9 10 -20 10 -11
0 -20 -4 -20 -10z"/>
<path d="M4570 5090 c0 -5 6 -10 14 -10 8 0 18 5 21 10 3 6 -3 10 -14 10 -12
0 -21 -4 -21 -10z"/>
<path d="M4660 5090 c0 -5 9 -10 20 -10 11 0 20 5 20 10 0 6 -9 10 -20 10 -11
0 -20 -4 -20 -10z"/>
<path d="M4755 5090 c3 -5 15 -10 26 -10 10 0 19 5 19 10 0 6 -12 10 -26 10
-14 0 -23 -4 -19 -10z"/>
<path d="M4560 5046 c0 -10 28 -13 41 -5 10 6 7 9 -13 9 -16 0 -28 -2 -28 -4z"/>
<path d="M4664 5041 c3 -5 15 -7 26 -4 28 7 25 13 -6 13 -14 0 -23 -4 -20 -9z"/>
<path d="M4763 5043 c9 -2 23 -2 30 0 6 3 -1 5 -18 5 -16 0 -22 -2 -12 -5z"/>
<path d="M4573 4993 c9 -2 23 -2 30 0 6 3 -1 5 -18 5 -16 0 -22 -2 -12 -5z"/>
<path d="M4673 4993 c9 -2 23 -2 30 0 6 3 -1 5 -18 5 -16 0 -22 -2 -12 -5z"/>
<path d="M4763 4993 c9 -2 23 -2 30 0 6 3 -1 5 -18 5 -16 0 -22 -2 -12 -5z"/>
<path d="M4565 4950 c-4 -6 5 -10 19 -10 14 0 26 5 26 10 0 6 -9 10 -19 10
-11 0 -23 -4 -26 -10z"/>
<path d="M4660 4950 c0 -5 12 -10 26 -10 14 0 23 4 19 10 -3 6 -15 10 -26 10
-10 0 -19 -4 -19 -10z"/>
<path d="M4750 4950 c0 -5 11 -10 25 -10 14 0 25 5 25 10 0 6 -11 10 -25 10
-14 0 -25 -4 -25 -10z"/>
<path d="M4570 4900 c0 -5 9 -10 20 -10 11 0 20 5 20 10 0 6 -9 10 -20 10 -11
0 -20 -4 -20 -10z"/>
<path d="M4660 4900 c0 -5 12 -10 26 -10 14 0 23 4 19 10 -3 6 -15 10 -26 10
-10 0 -19 -4 -19 -10z"/>
<path d="M4750 4900 c0 -5 11 -10 25 -10 14 0 25 5 25 10 0 6 -11 10 -25 10
-14 0 -25 -4 -25 -10z"/>
<path d="M4565 4850 c-4 -6 5 -10 19 -10 14 0 26 5 26 10 0 6 -9 10 -19 10
-11 0 -23 -4 -26 -10z"/>
<path d="M4660 4850 c0 -5 12 -10 26 -10 14 0 23 4 19 10 -3 6 -15 10 -26 10
-10 0 -19 -4 -19 -10z"/>
<path d="M4750 4850 c0 -5 11 -10 25 -10 14 0 25 5 25 10 0 6 -11 10 -25 10
-14 0 -25 -4 -25 -10z"/>
<path d="M4565 4800 c-4 -6 5 -10 19 -10 14 0 26 5 26 10 0 6 -9 10 -19 10
-11 0 -23 -4 -26 -10z"/>
<path d="M4660 4800 c0 -5 12 -10 26 -10 14 0 23 4 19 10 -3 6 -15 10 -26 10
-10 0 -19 -4 -19 -10z"/>
<path d="M4750 4800 c0 -5 11 -10 25 -10 14 0 25 5 25 10 0 6 -11 10 -25 10
-14 0 -25 -4 -25 -10z"/>
<path d="M4560 4750 c0 -5 11 -10 25 -10 14 0 25 5 25 10 0 6 -11 10 -25 10
-14 0 -25 -4 -25 -10z"/>
<path d="M4660 4750 c0 -5 12 -10 26 -10 14 0 23 4 19 10 -3 6 -15 10 -26 10
-10 0 -19 -4 -19 -10z"/>
<path d="M4750 4750 c0 -5 11 -10 25 -10 14 0 25 5 25 10 0 6 -11 10 -25 10
-14 0 -25 -4 -25 -10z"/>
<path d="M4565 4700 c3 -5 15 -10 26 -10 10 0 19 5 19 10 0 6 -12 10 -26 10
-14 0 -23 -4 -19 -10z"/>
<path d="M4660 4700 c0 -5 11 -10 25 -10 14 0 25 5 25 10 0 6 -11 10 -25 10
-14 0 -25 -4 -25 -10z"/>
<path d="M4750 4700 c0 -5 11 -10 25 -10 14 0 25 5 25 10 0 6 -11 10 -25 10
-14 0 -25 -4 -25 -10z"/>
<path d="M4508 4303 c-2 -203 0 -399 3 -438 3 -38 6 127 7 368 1 240 0 437 -3
437 -2 0 -6 -165 -7 -367z"/>
<path d="M4540 4650 c0 -5 14 -10 30 -10 17 0 30 5 30 10 0 6 -13 10 -30 10
-16 0 -30 -4 -30 -10z"/>
<path d="M4650 4650 c0 -5 14 -10 30 -10 17 0 30 5 30 10 0 6 -13 10 -30 10
-16 0 -30 -4 -30 -10z"/>
<path d="M4760 4650 c0 -5 14 -10 30 -10 17 0 30 5 30 10 0 6 -13 10 -30 10
-16 0 -30 -4 -30 -10z"/>
<path d="M4840 4633 c0 -13 5 -23 10 -23 13 0 13 11 0 30 -8 12 -10 11 -10 -7z"/>
<path d="M4730 4624 c0 -8 5 -12 10 -9 6 4 8 11 5 16 -9 14 -15 11 -15 -7z"/>
<path d="M4540 4600 c0 -5 14 -10 30 -10 17 0 30 5 30 10 0 6 -13 10 -30 10
-16 0 -30 -4 -30 -10z"/>
<path d="M4655 4600 c3 -5 17 -10 31 -10 13 0 24 5 24 10 0 6 -14 10 -31 10
-17 0 -28 -4 -24 -10z"/>
<path d="M4765 4600 c3 -5 17 -10 31 -10 13 0 24 5 24 10 0 6 -14 10 -31 10
-17 0 -28 -4 -24 -10z"/>
<path d="M4840 4579 c0 -11 4 -18 10 -14 5 3 7 12 3 20 -7 21 -13 19 -13 -6z"/>
<path d="M4730 4571 c0 -25 6 -27 13 -6 4 8 2 17 -3 20 -6 4 -10 -3 -10 -14z"/>
<path d="M4540 4550 c0 -5 14 -10 30 -10 17 0 30 5 30 10 0 6 -13 10 -30 10
-16 0 -30 -4 -30 -10z"/>
<path d="M4655 4550 c3 -5 17 -10 31 -10 13 0 24 5 24 10 0 6 -14 10 -31 10
-17 0 -28 -4 -24 -10z"/>
<path d="M4760 4550 c0 -5 14 -10 30 -10 17 0 30 5 30 10 0 6 -13 10 -30 10
-16 0 -30 -4 -30 -10z"/>
<path d="M4840 4525 c1 -26 2 -28 11 -12 8 14 8 22 0 30 -8 8 -11 3 -11 -18z"/>
<path d="M4730 4524 c0 -8 5 -12 10 -9 6 4 8 11 5 16 -9 14 -15 11 -15 -7z"/>
<path d="M4540 4500 c0 -5 14 -10 30 -10 17 0 30 5 30 10 0 6 -13 10 -30 10
-16 0 -30 -4 -30 -10z"/>
<path d="M4650 4500 c0 -5 14 -10 30 -10 17 0 30 5 30 10 0 6 -13 10 -30 10
-16 0 -30 -4 -30 -10z"/>
<path d="M4760 4500 c0 -5 14 -10 30 -10 17 0 30 5 30 10 0 6 -13 10 -30 10
-16 0 -30 -4 -30 -10z"/>
<path d="M4730 4474 c0 -8 5 -12 10 -9 6 4 8 11 5 16 -9 14 -15 11 -15 -7z"/>
<path d="M4840 4449 c0 -22 4 -38 9 -35 11 7 10 76 -1 76 -4 0 -8 -18 -8 -41z"/>
<path d="M4540 4450 c0 -5 11 -10 24 -10 14 0 28 5 31 10 4 6 -7 10 -24 10
-17 0 -31 -4 -31 -10z"/>
<path d="M4655 4450 c3 -5 17 -10 31 -10 13 0 24 5 24 10 0 6 -14 10 -31 10
-17 0 -28 -4 -24 -10z"/>
<path d="M4765 4450 c3 -5 17 -10 31 -10 13 0 24 5 24 10 0 6 -14 10 -31 10
-17 0 -28 -4 -24 -10z"/>
<path d="M4730 4429 c0 -11 4 -18 10 -14 5 3 7 12 3 20 -7 21 -13 19 -13 -6z"/>
<path d="M4545 4400 c3 -5 15 -10 25 -10 10 0 22 5 25 10 4 6 -7 10 -25 10
-18 0 -29 -4 -25 -10z"/>
<path d="M4655 4400 c3 -5 15 -10 25 -10 10 0 22 5 25 10 4 6 -7 10 -25 10
-18 0 -29 -4 -25 -10z"/>
<path d="M4765 4400 c3 -5 15 -10 25 -10 10 0 22 5 25 10 4 6 -7 10 -25 10
-18 0 -29 -4 -25 -10z"/>
<path d="M4840 4380 c0 -19 3 -21 12 -12 9 9 9 15 0 24 -9 9 -12 7 -12 -12z"/>
<path d="M4730 4374 c0 -8 5 -12 10 -9 6 4 8 11 5 16 -9 14 -15 11 -15 -7z"/>
<path d="M4545 4351 c3 -6 15 -8 27 -6 34 7 34 15 -1 15 -18 0 -30 -4 -26 -9z"/>
<path d="M4654 4352 c6 -10 42 -9 52 1 4 4 -7 7 -25 7 -18 0 -30 -4 -27 -8z"/>
<path d="M4765 4350 c6 -10 40 -8 51 3 4 4 -7 7 -25 7 -19 0 -30 -4 -26 -10z"/>
<path d="M4730 4330 c0 -19 3 -21 12 -12 9 9 9 15 0 24 -9 9 -12 7 -12 -12z"/>
<path d="M4840 4306 c0 -26 4 -45 8 -42 10 6 9 72 -1 82 -4 4 -7 -14 -7 -40z"/>
<path d="M4545 4310 c-8 -13 36 -23 48 -11 6 6 7 11 2 12 -6 0 -18 2 -27 4
-10 2 -20 -1 -23 -5z"/>
<path d="M4654 4308 c-3 -4 2 -11 10 -14 19 -7 52 3 42 13 -10 10 -46 11 -52
1z"/>
<path d="M4765 4310 c-4 -6 1 -13 9 -16 19 -7 52 3 42 13 -11 12 -45 13 -51 3z"/>
<path d="M4730 4281 c0 -25 6 -27 13 -6 4 8 2 17 -3 20 -6 4 -10 -3 -10 -14z"/>
<path d="M4542 4259 c2 -6 7 -10 11 -10 4 1 16 1 28 1 11 0 17 5 14 10 -8 14
-58 13 -53 -1z"/>
<path d="M4655 4260 c-4 -6 7 -10 25 -10 18 0 29 4 25 10 -3 6 -15 10 -25 10
-10 0 -22 -4 -25 -10z"/>
<path d="M4765 4260 c-4 -6 7 -10 25 -10 18 0 29 4 25 10 -3 6 -15 10 -25 10
-10 0 -22 -4 -25 -10z"/>
<path d="M4730 4230 c0 -19 3 -21 12 -12 9 9 9 15 0 24 -9 9 -12 7 -12 -12z"/>
<path d="M4840 4230 c0 -19 3 -21 12 -12 9 9 9 15 0 24 -9 9 -12 7 -12 -12z"/>
<path d="M4540 4210 c0 -5 14 -10 31 -10 17 0 28 4 24 10 -3 6 -17 10 -31 10
-13 0 -24 -4 -24 -10z"/>
<path d="M4655 4210 c-4 -6 7 -10 25 -10 18 0 29 4 25 10 -3 6 -15 10 -25 10
-10 0 -22 -4 -25 -10z"/>
<path d="M4765 4210 c-4 -6 7 -10 25 -10 18 0 29 4 25 10 -3 6 -15 10 -25 10
-10 0 -22 -4 -25 -10z"/>
<path d="M4730 4184 c0 -8 5 -12 10 -9 6 4 8 11 5 16 -9 14 -15 11 -15 -7z"/>
<path d="M4840 4186 c0 -9 5 -16 10 -16 6 0 10 4 10 9 0 6 -4 13 -10 16 -5 3
-10 -1 -10 -9z"/>
<path d="M4540 4160 c0 -5 14 -10 31 -10 17 0 28 4 24 10 -3 6 -17 10 -31 10
-13 0 -24 -4 -24 -10z"/>
<path d="M4655 4160 c-4 -6 7 -10 25 -10 18 0 29 4 25 10 -3 6 -15 10 -25 10
-10 0 -22 -4 -25 -10z"/>
<path d="M4765 4160 c-4 -6 7 -10 24 -10 17 0 31 5 31 10 0 6 -11 10 -24 10
-14 0 -28 -4 -31 -10z"/>
<path d="M4730 4134 c0 -8 5 -12 10 -9 6 4 8 11 5 16 -9 14 -15 11 -15 -7z"/>
<path d="M4840 4136 c0 -9 5 -16 10 -16 6 0 10 4 10 9 0 6 -4 13 -10 16 -5 3
-10 -1 -10 -9z"/>
<path d="M4540 4110 c0 -5 14 -10 30 -10 17 0 30 5 30 10 0 6 -13 10 -30 10
-16 0 -30 -4 -30 -10z"/>
<path d="M4655 4110 c-4 -6 7 -10 24 -10 17 0 31 5 31 10 0 6 -11 10 -24 10
-14 0 -28 -4 -31 -10z"/>
<path d="M4765 4110 c-4 -6 7 -10 24 -10 17 0 31 5 31 10 0 6 -11 10 -24 10
-14 0 -28 -4 -31 -10z"/>
<path d="M4840 4085 c0 -15 4 -24 10 -20 6 3 10 12 10 20 0 8 -4 17 -10 20 -6
4 -10 -5 -10 -20z"/>
<path d="M4730 4084 c0 -8 5 -12 10 -9 6 4 8 11 5 16 -9 14 -15 11 -15 -7z"/>
<path d="M4540 4060 c0 -5 14 -10 30 -10 17 0 30 5 30 10 0 6 -13 10 -30 10
-16 0 -30 -4 -30 -10z"/>
<path d="M4650 4060 c0 -5 14 -10 30 -10 17 0 30 5 30 10 0 6 -13 10 -30 10
-16 0 -30 -4 -30 -10z"/>
<path d="M4760 4060 c0 -5 14 -10 30 -10 17 0 30 5 30 10 0 6 -13 10 -30 10
-16 0 -30 -4 -30 -10z"/>
<path d="M4730 4034 c0 -8 5 -12 10 -9 6 4 8 11 5 16 -9 14 -15 11 -15 -7z"/>
<path d="M4840 4036 c0 -9 5 -16 10 -16 6 0 10 4 10 9 0 6 -4 13 -10 16 -5 3
-10 -1 -10 -9z"/>
<path d="M4540 4010 c0 -5 14 -10 30 -10 17 0 30 5 30 10 0 6 -13 10 -30 10
-16 0 -30 -4 -30 -10z"/>
<path d="M4650 4010 c0 -5 14 -10 30 -10 17 0 30 5 30 10 0 6 -13 10 -30 10
-16 0 -30 -4 -30 -10z"/>
<path d="M4760 4010 c0 -5 14 -10 30 -10 17 0 30 5 30 10 0 6 -13 10 -30 10
-16 0 -30 -4 -30 -10z"/>
<path d="M4730 3981 c0 -25 6 -27 13 -6 4 8 2 17 -3 20 -6 4 -10 -3 -10 -14z"/>
<path d="M4840 3985 c0 -8 5 -15 10 -15 6 0 10 7 10 15 0 8 -4 15 -10 15 -5 0
-10 -7 -10 -15z"/>
<path d="M4540 3960 c0 -5 14 -10 30 -10 17 0 30 5 30 10 0 6 -13 10 -30 10
-16 0 -30 -4 -30 -10z"/>
<path d="M4650 3960 c0 -5 14 -10 30 -10 17 0 30 5 30 10 0 6 -13 10 -30 10
-16 0 -30 -4 -30 -10z"/>
<path d="M4765 3960 c3 -5 17 -10 31 -10 13 0 24 5 24 10 0 6 -14 10 -31 10
-17 0 -28 -4 -24 -10z"/>
<path d="M4840 3933 c0 -21 3 -24 9 -14 5 8 7 20 4 28 -8 21 -13 15 -13 -14z"/>
<path d="M4730 3934 c0 -8 5 -12 10 -9 6 4 8 11 5 16 -9 14 -15 11 -15 -7z"/>
<path d="M4540 3910 c0 -5 14 -10 30 -10 17 0 30 5 30 10 0 6 -13 10 -30 10
-16 0 -30 -4 -30 -10z"/>
<path d="M4650 3910 c0 -5 14 -10 30 -10 17 0 30 5 30 10 0 6 -13 10 -30 10
-16 0 -30 -4 -30 -10z"/>
<path d="M4765 3910 c3 -5 17 -10 31 -10 13 0 24 5 24 10 0 6 -14 10 -31 10
-17 0 -28 -4 -24 -10z"/>
<path d="M4730 3884 c0 -8 5 -12 10 -9 6 4 8 11 5 16 -9 14 -15 11 -15 -7z"/>
<path d="M4840 3884 c0 -8 5 -12 10 -9 6 4 8 11 5 16 -9 14 -15 11 -15 -7z"/>
<path d="M4540 3860 c0 -5 14 -10 30 -10 17 0 30 5 30 10 0 6 -13 10 -30 10
-16 0 -30 -4 -30 -10z"/>
<path d="M4650 3860 c0 -5 14 -10 30 -10 17 0 30 5 30 10 0 6 -13 10 -30 10
-16 0 -30 -4 -30 -10z"/>
<path d="M4760 3860 c0 -5 14 -10 30 -10 17 0 30 5 30 10 0 6 -13 10 -30 10
-16 0 -30 -4 -30 -10z"/>
<path d="M4730 3834 c0 -8 5 -12 10 -9 6 4 8 11 5 16 -9 14 -15 11 -15 -7z"/>
<path d="M4840 3834 c0 -8 5 -12 10 -9 6 3 10 10 10 16 0 5 -4 9 -10 9 -5 0
-10 -7 -10 -16z"/>
<path d="M4540 3810 c0 -5 14 -10 30 -10 17 0 30 5 30 10 0 6 -13 10 -30 10
-16 0 -30 -4 -30 -10z"/>
<path d="M4650 3810 c0 -5 14 -10 30 -10 17 0 30 5 30 10 0 6 -13 10 -30 10
-16 0 -30 -4 -30 -10z"/>
<path d="M4765 3810 c3 -5 17 -10 31 -10 13 0 24 5 24 10 0 6 -14 10 -31 10
-17 0 -28 -4 -24 -10z"/>
<path d="M4510 3760 c0 -5 16 -10 35 -10 19 0 35 5 35 10 0 6 -16 10 -35 10
-19 0 -35 -4 -35 -10z"/>
<path d="M4650 3760 c0 -5 13 -10 29 -10 17 0 33 5 36 10 4 6 -8 10 -29 10
-20 0 -36 -4 -36 -10z"/>
<path d="M4780 3760 c0 -5 16 -10 35 -10 19 0 35 5 35 10 0 6 -16 10 -35 10
-19 0 -35 -4 -35 -10z"/>
<path d="M4515 3710 c3 -5 17 -10 30 -10 13 0 27 5 30 10 4 6 -8 10 -30 10
-22 0 -34 -4 -30 -10z"/>
<path d="M4655 3710 c3 -5 17 -10 30 -10 13 0 27 5 30 10 4 6 -8 10 -30 10
-22 0 -34 -4 -30 -10z"/>
<path d="M4785 3710 c3 -5 17 -10 30 -10 13 0 27 5 30 10 4 6 -8 10 -30 10
-22 0 -34 -4 -30 -10z"/>
<path d="M4515 3660 c3 -5 17 -10 30 -10 13 0 27 5 30 10 4 6 -8 10 -30 10
-22 0 -34 -4 -30 -10z"/>
<path d="M4650 3660 c0 -5 13 -10 29 -10 17 0 33 5 36 10 4 6 -8 10 -29 10
-20 0 -36 -4 -36 -10z"/>
<path d="M4780 3660 c0 -5 13 -10 29 -10 17 0 33 5 36 10 4 6 -8 10 -29 10
-20 0 -36 -4 -36 -10z"/>
<path d="M4515 3619 c-7 -11 18 -22 40 -17 9 1 17 7 18 13 3 13 -51 17 -58 4z"/>
<path d="M4650 3619 c0 -14 21 -21 47 -14 14 3 22 9 18 13 -9 10 -65 11 -65 1z"/>
<path d="M4785 3622 c-14 -14 -2 -23 28 -20 17 2 32 8 32 13 0 10 -51 16 -60
7z"/>
<path d="M4525 3569 c-15 -6 -11 -8 18 -8 20 -1 37 1 37 3 0 9 -37 12 -55 5z"/>
<path d="M4660 3570 c-11 -7 -4 -10 25 -9 31 0 36 2 20 9 -26 11 -28 11 -45 0z"/>
<path d="M4784 3569 c-3 -5 12 -9 32 -9 21 0 34 3 31 6 -11 11 -57 13 -63 3z"/>
<path d="M4515 3520 c-4 -6 8 -10 30 -10 22 0 34 4 30 10 -3 6 -17 10 -30 10
-13 0 -27 -4 -30 -10z"/>
<path d="M4650 3520 c0 -5 16 -10 36 -10 21 0 33 4 29 10 -3 6 -19 10 -36 10
-16 0 -29 -4 -29 -10z"/>
<path d="M4780 3520 c0 -5 16 -10 36 -10 21 0 33 4 29 10 -3 6 -19 10 -36 10
-16 0 -29 -4 -29 -10z"/>
<path d="M4515 3470 c-4 -6 8 -10 29 -10 20 0 36 5 36 10 0 6 -13 10 -29 10
-17 0 -33 -4 -36 -10z"/>
<path d="M4650 3470 c0 -5 16 -10 36 -10 21 0 33 4 29 10 -3 6 -19 10 -36 10
-16 0 -29 -4 -29 -10z"/>
<path d="M4780 3470 c0 -5 16 -10 36 -10 21 0 33 4 29 10 -3 6 -19 10 -36 10
-16 0 -29 -4 -29 -10z"/>
<path d="M4510 3420 c0 -5 16 -10 35 -10 19 0 35 5 35 10 0 6 -16 10 -35 10
-19 0 -35 -4 -35 -10z"/>
<path d="M4650 3420 c0 -5 16 -10 35 -10 19 0 35 5 35 10 0 6 -16 10 -35 10
-19 0 -35 -4 -35 -10z"/>
<path d="M4780 3420 c0 -5 16 -10 35 -10 19 0 35 5 35 10 0 6 -16 10 -35 10
-19 0 -35 -4 -35 -10z"/>
<path d="M4510 3370 c0 -5 16 -10 35 -10 19 0 35 5 35 10 0 6 -16 10 -35 10
-19 0 -35 -4 -35 -10z"/>
<path d="M4650 3370 c0 -5 16 -10 36 -10 21 0 33 4 29 10 -3 6 -19 10 -36 10
-16 0 -29 -4 -29 -10z"/>
<path d="M4780 3370 c0 -5 16 -10 35 -10 19 0 35 5 35 10 0 6 -16 10 -35 10
-19 0 -35 -4 -35 -10z"/>
<path d="M4515 3320 c-4 -6 8 -10 29 -10 20 0 36 5 36 10 0 6 -13 10 -29 10
-17 0 -33 -4 -36 -10z"/>
<path d="M4650 3320 c0 -5 16 -10 36 -10 21 0 33 4 29 10 -3 6 -19 10 -36 10
-16 0 -29 -4 -29 -10z"/>
<path d="M4780 3320 c0 -5 16 -10 35 -10 19 0 35 5 35 10 0 6 -16 10 -35 10
-19 0 -35 -4 -35 -10z"/>
<path d="M4510 3270 c0 -5 16 -10 35 -10 19 0 35 5 35 10 0 6 -16 10 -35 10
-19 0 -35 -4 -35 -10z"/>
<path d="M4650 3270 c0 -5 16 -10 36 -10 21 0 33 4 29 10 -3 6 -19 10 -36 10
-16 0 -29 -4 -29 -10z"/>
<path d="M4780 3270 c0 -5 16 -10 35 -10 19 0 35 5 35 10 0 6 -16 10 -35 10
-19 0 -35 -4 -35 -10z"/>
<path d="M4510 3220 c0 -5 16 -10 35 -10 19 0 35 5 35 10 0 6 -16 10 -35 10
-19 0 -35 -4 -35 -10z"/>
<path d="M4650 3220 c0 -5 13 -10 29 -10 17 0 33 5 36 10 4 6 -8 10 -29 10
-20 0 -36 -4 -36 -10z"/>
<path d="M4780 3220 c0 -5 16 -10 35 -10 19 0 35 5 35 10 0 6 -16 10 -35 10
-19 0 -35 -4 -35 -10z"/>
<path d="M4510 3170 c0 -5 16 -10 35 -10 19 0 35 5 35 10 0 6 -16 10 -35 10
-19 0 -35 -4 -35 -10z"/>
<path d="M4650 3170 c0 -5 16 -10 35 -10 19 0 35 5 35 10 0 6 -16 10 -35 10
-19 0 -35 -4 -35 -10z"/>
<path d="M4780 3170 c0 -5 16 -10 35 -10 19 0 35 5 35 10 0 6 -16 10 -35 10
-19 0 -35 -4 -35 -10z"/>
<path d="M4515 3120 c3 -5 19 -10 36 -10 16 0 29 5 29 10 0 6 -16 10 -36 10
-21 0 -33 -4 -29 -10z"/>
<path d="M4650 3120 c0 -5 13 -10 29 -10 17 0 33 5 36 10 4 6 -8 10 -29 10
-20 0 -36 -4 -36 -10z"/>
<path d="M4780 3120 c0 -5 16 -10 35 -10 19 0 35 5 35 10 0 6 -16 10 -35 10
-19 0 -35 -4 -35 -10z"/>
<path d="M4515 3070 c3 -5 19 -10 36 -10 16 0 29 5 29 10 0 6 -16 10 -36 10
-21 0 -33 -4 -29 -10z"/>
<path d="M4645 3070 c3 -5 19 -10 35 -10 16 0 32 5 35 10 4 6 -10 10 -35 10
-25 0 -39 -4 -35 -10z"/>
<path d="M4780 3070 c0 -5 13 -10 29 -10 17 0 33 5 36 10 4 6 -8 10 -29 10
-20 0 -36 -4 -36 -10z"/>
<path d="M4515 3020 c3 -5 19 -10 36 -10 16 0 29 5 29 10 0 6 -16 10 -36 10
-21 0 -33 -4 -29 -10z"/>
<path d="M4650 3020 c0 -5 13 -10 29 -10 17 0 33 5 36 10 4 6 -8 10 -29 10
-20 0 -36 -4 -36 -10z"/>
<path d="M4780 3020 c0 -5 16 -10 35 -10 19 0 35 5 35 10 0 6 -16 10 -35 10
-19 0 -35 -4 -35 -10z"/>
<path d="M4515 2970 c3 -5 17 -10 30 -10 13 0 27 5 30 10 4 6 -8 10 -30 10
-22 0 -34 -4 -30 -10z"/>
<path d="M4645 2970 c3 -5 19 -10 35 -10 16 0 32 5 35 10 4 6 -10 10 -35 10
-25 0 -39 -4 -35 -10z"/>
<path d="M4780 2970 c0 -5 13 -10 29 -10 17 0 33 5 36 10 4 6 -8 10 -29 10
-20 0 -36 -4 -36 -10z"/>
<path d="M4530 2929 c-14 -4 -20 -8 -15 -9 33 -6 56 -6 60 1 8 11 -18 16 -45
8z"/>
<path d="M4655 2920 c8 -13 35 -13 55 0 11 7 5 10 -23 10 -23 0 -36 -4 -32
-10z"/>
<path d="M4780 2926 c0 -9 37 -12 55 -5 15 6 11 8 -17 8 -21 1 -38 -1 -38 -3z"/>
<path d="M4530 2880 c-22 -7 -21 -8 13 -9 23 -1 36 3 32 9 -7 11 -10 11 -45 0z"/>
<path d="M4784 2878 c-3 -4 11 -8 30 -8 20 0 36 2 36 4 0 8 -61 12 -66 4z"/>
<path d="M4668 2873 c12 -2 30 -2 40 0 9 3 -1 5 -23 4 -22 0 -30 -2 -17 -4z"/>
<path d="M4515 2830 c-4 -6 8 -10 30 -10 22 0 34 4 30 10 -3 6 -17 10 -30 10
-13 0 -27 -4 -30 -10z"/>
<path d="M4650 2830 c0 -5 16 -10 36 -10 21 0 33 4 29 10 -3 6 -19 10 -36 10
-16 0 -29 -4 -29 -10z"/>
<path d="M4780 2830 c0 -5 16 -10 36 -10 21 0 33 4 29 10 -3 6 -19 10 -36 10
-16 0 -29 -4 -29 -10z"/>
<path d="M4515 2780 c-4 -6 8 -10 29 -10 20 0 36 5 36 10 0 6 -13 10 -29 10
-17 0 -33 -4 -36 -10z"/>
<path d="M4650 2780 c0 -5 16 -10 36 -10 21 0 33 4 29 10 -3 6 -19 10 -36 10
-16 0 -29 -4 -29 -10z"/>
<path d="M4780 2780 c0 -5 16 -10 35 -10 19 0 35 5 35 10 0 6 -16 10 -35 10
-19 0 -35 -4 -35 -10z"/>
<path d="M4515 2730 c-4 -6 8 -10 29 -10 20 0 36 5 36 10 0 6 -13 10 -29 10
-17 0 -33 -4 -36 -10z"/>
<path d="M4650 2730 c0 -5 16 -10 36 -10 21 0 33 4 29 10 -3 6 -19 10 -36 10
-16 0 -29 -4 -29 -10z"/>
<path d="M4780 2730 c0 -5 16 -10 35 -10 19 0 35 5 35 10 0 6 -16 10 -35 10
-19 0 -35 -4 -35 -10z"/>
<path d="M4515 2680 c-4 -6 8 -10 29 -10 20 0 36 5 36 10 0 6 -13 10 -29 10
-17 0 -33 -4 -36 -10z"/>
<path d="M4650 2680 c0 -5 16 -10 36 -10 21 0 33 4 29 10 -3 6 -19 10 -36 10
-16 0 -29 -4 -29 -10z"/>
<path d="M4780 2680 c0 -5 16 -10 35 -10 19 0 35 5 35 10 0 6 -16 10 -35 10
-19 0 -35 -4 -35 -10z"/>
<path d="M4515 2630 c-4 -6 8 -10 29 -10 20 0 36 5 36 10 0 6 -13 10 -29 10
-17 0 -33 -4 -36 -10z"/>
<path d="M4650 2630 c0 -5 16 -10 36 -10 21 0 33 4 29 10 -3 6 -19 10 -36 10
-16 0 -29 -4 -29 -10z"/>
<path d="M4780 2630 c0 -5 16 -10 35 -10 19 0 35 5 35 10 0 6 -16 10 -35 10
-19 0 -35 -4 -35 -10z"/>
<path d="M4510 2580 c0 -5 16 -10 35 -10 19 0 35 5 35 10 0 6 -16 10 -35 10
-19 0 -35 -4 -35 -10z"/>
<path d="M4650 2580 c0 -5 13 -10 29 -10 17 0 33 5 36 10 4 6 -8 10 -29 10
-20 0 -36 -4 -36 -10z"/>
<path d="M4780 2580 c0 -5 16 -10 35 -10 19 0 35 5 35 10 0 6 -16 10 -35 10
-19 0 -35 -4 -35 -10z"/>
<path d="M4510 2530 c0 -5 16 -10 35 -10 19 0 35 5 35 10 0 6 -16 10 -35 10
-19 0 -35 -4 -35 -10z"/>
<path d="M4650 2530 c0 -5 16 -10 35 -10 19 0 35 5 35 10 0 6 -16 10 -35 10
-19 0 -35 -4 -35 -10z"/>
<path d="M4780 2530 c0 -5 16 -10 35 -10 19 0 35 5 35 10 0 6 -16 10 -35 10
-19 0 -35 -4 -35 -10z"/>
<path d="M4510 2480 c0 -5 16 -10 35 -10 19 0 35 5 35 10 0 6 -16 10 -35 10
-19 0 -35 -4 -35 -10z"/>
<path d="M4650 2480 c0 -5 16 -10 35 -10 19 0 35 5 35 10 0 6 -16 10 -35 10
-19 0 -35 -4 -35 -10z"/>
<path d="M4780 2480 c0 -5 16 -10 35 -10 19 0 35 5 35 10 0 6 -16 10 -35 10
-19 0 -35 -4 -35 -10z"/>
<path d="M4515 2430 c3 -5 19 -10 36 -10 16 0 29 5 29 10 0 6 -16 10 -36 10
-21 0 -33 -4 -29 -10z"/>
<path d="M4650 2430 c0 -5 13 -10 29 -10 17 0 33 5 36 10 4 6 -8 10 -29 10
-20 0 -36 -4 -36 -10z"/>
<path d="M4780 2430 c0 -5 16 -10 35 -10 19 0 35 5 35 10 0 6 -16 10 -35 10
-19 0 -35 -4 -35 -10z"/>
<path d="M4515 2380 c3 -5 19 -10 36 -10 16 0 29 5 29 10 0 6 -16 10 -36 10
-21 0 -33 -4 -29 -10z"/>
<path d="M4650 2380 c0 -5 13 -10 29 -10 17 0 33 5 36 10 4 6 -8 10 -29 10
-20 0 -36 -4 -36 -10z"/>
<path d="M4780 2380 c0 -5 16 -10 35 -10 19 0 35 5 35 10 0 6 -16 10 -35 10
-19 0 -35 -4 -35 -10z"/>
<path d="M4515 2330 c3 -5 19 -10 36 -10 16 0 29 5 29 10 0 6 -16 10 -36 10
-21 0 -33 -4 -29 -10z"/>
<path d="M4650 2330 c0 -5 13 -10 29 -10 17 0 33 5 36 10 4 6 -8 10 -29 10
-20 0 -36 -4 -36 -10z"/>
<path d="M4780 2330 c0 -5 16 -10 35 -10 19 0 35 5 35 10 0 6 -16 10 -35 10
-19 0 -35 -4 -35 -10z"/>
<path d="M4515 2280 c3 -5 17 -10 30 -10 13 0 27 5 30 10 4 6 -8 10 -30 10
-22 0 -34 -4 -30 -10z"/>
<path d="M4650 2280 c0 -5 13 -10 29 -10 17 0 33 5 36 10 4 6 -8 10 -29 10
-20 0 -36 -4 -36 -10z"/>
<path d="M4780 2280 c0 -5 16 -10 35 -10 19 0 35 5 35 10 0 6 -16 10 -35 10
-19 0 -35 -4 -35 -10z"/>
<path d="M4510 2236 c0 -8 61 -12 66 -4 3 4 -11 8 -30 8 -20 0 -36 -2 -36 -4z"/>
<path d="M4650 2236 c0 -9 37 -12 55 -5 15 6 11 8 -17 8 -21 1 -38 -1 -38 -3z"/>
<path d="M4780 2231 c0 -10 57 -8 67 3 3 3 -10 6 -30 6 -20 0 -37 -4 -37 -9z"/>
<path d="M4515 2190 c-4 -6 8 -10 30 -10 22 0 34 4 30 10 -3 6 -17 10 -30 10
-13 0 -27 -4 -30 -10z"/>
<path d="M4665 2189 c-15 -6 -11 -8 18 -8 20 -1 37 1 37 3 0 9 -37 12 -55 5z"/>
<path d="M4785 2190 c-4 -6 8 -10 30 -10 22 0 34 4 30 10 -3 6 -17 10 -30 10
-13 0 -27 -4 -30 -10z"/>
<path d="M4515 2140 c-4 -6 8 -10 30 -10 22 0 34 4 30 10 -3 6 -17 10 -30 10
-13 0 -27 -4 -30 -10z"/>
<path d="M4650 2140 c0 -5 16 -10 36 -10 21 0 33 4 29 10 -3 6 -19 10 -36 10
-16 0 -29 -4 -29 -10z"/>
<path d="M4780 2140 c0 -5 16 -10 36 -10 21 0 33 4 29 10 -3 6 -19 10 -36 10
-16 0 -29 -4 -29 -10z"/>
<path d="M4515 2090 c-4 -6 8 -10 29 -10 20 0 36 5 36 10 0 6 -13 10 -29 10
-17 0 -33 -4 -36 -10z"/>
<path d="M4650 2090 c0 -5 16 -10 36 -10 21 0 33 4 29 10 -3 6 -19 10 -36 10
-16 0 -29 -4 -29 -10z"/>
<path d="M4780 2090 c0 -5 16 -10 35 -10 19 0 35 5 35 10 0 6 -16 10 -35 10
-19 0 -35 -4 -35 -10z"/>
<path d="M4515 2040 c-4 -6 8 -10 29 -10 20 0 36 5 36 10 0 6 -13 10 -29 10
-17 0 -33 -4 -36 -10z"/>
<path d="M4650 2040 c0 -5 16 -10 36 -10 21 0 33 4 29 10 -3 6 -19 10 -36 10
-16 0 -29 -4 -29 -10z"/>
<path d="M4780 2040 c0 -5 16 -10 35 -10 19 0 35 5 35 10 0 6 -16 10 -35 10
-19 0 -35 -4 -35 -10z"/>
<path d="M4515 1990 c-4 -6 8 -10 29 -10 20 0 36 5 36 10 0 6 -13 10 -29 10
-17 0 -33 -4 -36 -10z"/>
<path d="M4650 1990 c0 -5 16 -10 36 -10 21 0 33 4 29 10 -3 6 -19 10 -36 10
-16 0 -29 -4 -29 -10z"/>
<path d="M4780 1990 c0 -5 16 -10 35 -10 19 0 35 5 35 10 0 6 -16 10 -35 10
-19 0 -35 -4 -35 -10z"/>
<path d="M4510 1940 c0 -5 16 -10 35 -10 19 0 35 5 35 10 0 6 -16 10 -35 10
-19 0 -35 -4 -35 -10z"/>
<path d="M4645 1940 c-4 -6 10 -10 34 -10 23 0 41 5 41 10 0 6 -15 10 -34 10
-19 0 -38 -4 -41 -10z"/>
<path d="M4780 1940 c0 -5 16 -10 35 -10 19 0 35 5 35 10 0 6 -16 10 -35 10
-19 0 -35 -4 -35 -10z"/>
<path d="M1580 2940 c0 -5 18 -10 40 -10 22 0 40 5 40 10 0 6 -18 10 -40 10
-22 0 -40 -4 -40 -10z"/>
<path d="M1680 2940 c0 -5 18 -10 40 -10 22 0 40 5 40 10 0 6 -18 10 -40 10
-22 0 -40 -4 -40 -10z"/>
<path d="M1770 2940 c0 -5 18 -10 40 -10 22 0 40 5 40 10 0 6 -18 10 -40 10
-22 0 -40 -4 -40 -10z"/>
<path d="M1870 2940 c0 -5 15 -10 34 -10 19 0 38 5 41 10 4 6 -10 10 -34 10
-23 0 -41 -4 -41 -10z"/>
<path d="M1960 2940 c0 -5 18 -10 40 -10 22 0 40 5 40 10 0 6 -18 10 -40 10
-22 0 -40 -4 -40 -10z"/>
<path d="M2055 2940 c3 -5 22 -10 41 -10 19 0 34 5 34 10 0 6 -18 10 -41 10
-24 0 -38 -4 -34 -10z"/>
<path d="M2150 2940 c0 -5 18 -10 40 -10 22 0 40 5 40 10 0 6 -18 10 -40 10
-22 0 -40 -4 -40 -10z"/>
<path d="M2230 2906 c0 -10 9 -16 21 -16 24 0 21 23 -4 28 -10 2 -17 -3 -17
-12z"/>
<path d="M2144 2899 c-3 -5 4 -9 15 -9 10 0 27 -3 37 -7 11 -4 15 -3 11 4 -9
14 -56 23 -63 12z"/>
<path d="M1594 2885 c-4 -9 -2 -21 5 -28 8 -8 11 -5 11 11 0 17 6 22 27 22 14
0 35 -8 46 -17 19 -17 19 -17 16 2 -3 16 -13 21 -52 23 -36 2 -49 -1 -53 -13z"/>
<path d="M1872 2880 c0 -14 2 -19 5 -12 2 6 2 18 0 25 -3 6 -5 1 -5 -13z"/>
<path d="M1935 2875 c-14 -13 -25 -32 -24 -42 0 -13 2 -14 6 -4 11 27 47 61
65 61 11 0 28 -5 39 -10 15 -8 19 -7 19 5 0 26 -76 20 -105 -10z"/>
<path d="M1490 2864 c0 -11 9 -14 37 -12 52 4 56 28 4 28 -30 0 -41 -4 -41
-16z"/>
<path d="M1733 2810 c0 -41 2 -58 4 -37 2 20 2 54 0 75 -2 20 -4 3 -4 -38z"/>
<path d="M2118 2800 c-2 -44 0 -80 5 -80 4 0 7 36 7 80 0 44 -2 80 -4 80 -3 0
-6 -36 -8 -80z"/>
<path d="M1851 2854 c0 -11 3 -14 6 -6 3 7 2 16 -1 19 -3 4 -6 -2 -5 -13z"/>
<path d="M2071 2865 c1 -19 18 -51 18 -35 0 8 -4 22 -9 30 -5 8 -9 11 -9 5z"/>
<path d="M1490 2831 c0 -11 21 -19 38 -14 21 8 13 23 -13 23 -14 0 -25 -4 -25
-9z"/>
<path d="M1560 2830 c0 -5 6 -10 14 -10 8 0 18 5 21 10 3 6 -3 10 -14 10 -12
0 -21 -4 -21 -10z"/>
<path d="M1647 2819 c7 -7 15 -10 18 -7 3 3 -2 9 -12 12 -14 6 -15 5 -6 -5z"/>
<path d="M1750 2815 c0 -5 25 -10 55 -10 30 0 55 5 55 10 0 6 -25 10 -55 10
-30 0 -55 -4 -55 -10z"/>
<path d="M1610 2810 c8 -5 20 -10 25 -10 6 0 3 5 -5 10 -8 5 -19 10 -25 10 -5
0 -3 -5 5 -10z"/>
<path d="M2170 2804 l-35 -13 31 0 c17 -1 37 6 44 14 15 18 8 17 -40 -1z"/>
<path d="M1911 2784 c0 -11 3 -14 6 -6 3 7 2 16 -1 19 -3 4 -6 -2 -5 -13z"/>
<path d="M2080 2790 c0 -6 -12 -22 -27 -36 -22 -20 -34 -24 -60 -19 -20 4 -33
2 -33 -5 0 -5 18 -10 40 -10 30 0 47 7 65 25 22 21 34 55 20 55 -3 0 -5 -5 -5
-10z"/>
<path d="M1851 2774 c0 -11 3 -14 6 -6 3 7 2 16 -1 19 -3 4 -6 -2 -5 -13z"/>
<path d="M1570 2765 c-7 -9 -11 -17 -9 -18 44 -29 120 -35 125 -9 1 7 0 8 -3
2 -6 -13 -60 -13 -68 0 -4 6 -11 7 -17 4 -7 -5 -9 -1 -5 9 8 22 -8 30 -23 12z"/>
<path d="M1701 2764 c0 -11 3 -14 6 -6 3 7 2 16 -1 19 -3 4 -6 -2 -5 -13z"/>
<path d="M1490 2750 c0 -5 14 -10 30 -10 17 0 30 5 30 10 0 6 -13 10 -30 10
-16 0 -30 -4 -30 -10z"/>
<path d="M2230 2750 c0 -5 9 -10 20 -10 11 0 20 5 20 10 0 6 -9 10 -20 10 -11
0 -20 -4 -20 -10z"/>
<path d="M2280 2750 c0 -5 9 -10 20 -10 11 0 20 5 20 10 0 6 -9 10 -20 10 -11
0 -20 -4 -20 -10z"/>
<path d="M1503 2723 c-27 -10 -11 -23 27 -23 40 0 53 13 24 24 -18 7 -33 7
-51 -1z"/>
<path d="M1490 2675 c0 -12 7 -15 25 -13 14 2 26 8 26 13 0 6 -12 11 -26 13
-18 2 -25 -1 -25 -13z"/>
<path d="M1490 2640 c0 -5 18 -10 40 -10 22 0 40 5 40 10 0 6 -18 10 -40 10
-22 0 -40 -4 -40 -10z"/>
<path d="M2016 2418 c-9 -12 -16 -26 -16 -30 0 -5 61 -8 135 -8 74 0 135 3
135 8 0 4 -7 18 -16 30 -14 20 -23 22 -119 22 -96 0 -105 -2 -119 -22z"/>
<path d="M1556 2408 c-9 -12 -16 -26 -16 -30 0 -5 77 -8 170 -8 94 0 170 2
170 5 0 3 -7 17 -16 30 -16 25 -19 25 -155 25 -131 0 -139 -1 -153 -22z"/>
<path d="M2047 2355 c-16 -11 -18 -34 -18 -206 l0 -194 108 0 108 0 3 190 c2
185 2 190 -20 206 -16 13 -26 14 -38 7 -12 -8 -23 -8 -35 0 -13 7 -24 6 -37
-1 -13 -9 -23 -9 -36 -1 -14 9 -22 9 -35 -1z m158 -110 l0 -80 -70 -3 -70 -2
63 61 c35 33 62 67 60 75 -2 10 -13 4 -38 -19 -20 -17 -46 -41 -58 -51 l-22
-19 0 62 0 62 68 -3 67 -3 0 -80z"/>
<path d="M2135 2210 c-25 -25 -34 -40 -24 -40 8 0 33 18 54 40 23 23 33 40 25
40 -8 -1 -33 -19 -55 -40z"/>
<path d="M1780 2343 c-14 -2 -65 -42 -117 -91 l-93 -88 0 83 c0 45 -4 85 -10
88 -6 4 -10 -28 -10 -89 0 -70 3 -96 13 -97 18 -1 185 -2 245 0 l52 1 -2 98
-2 97 -5 -85 -6 -85 -80 -3 -80 -3 78 72 c42 39 77 75 77 80 0 17 -32 -7 -115
-86 -44 -41 -84 -74 -89 -72 -8 3 57 69 149 151 22 19 36 35 30 34 -5 0 -21
-3 -35 -5z"/>
<path d="M982 1355 c6 -14 14 -25 19 -25 4 0 31 -40 60 -90 29 -49 56 -90 59
-90 3 0 11 9 18 21 11 17 11 24 -1 37 -20 24 -97 152 -97 163 0 5 -16 9 -35 9
-33 0 -34 -1 -23 -25z"/>
<path d="M1244 1368 c-4 -7 -7 -70 -5 -139 1 -80 -2 -135 -9 -148 -10 -20 -8
-21 32 -21 33 0 39 3 30 12 -19 19 -16 257 4 286 15 21 14 22 -15 22 -16 0
-33 -5 -37 -12z"/>
<path d="M1508 1368 c8 -8 12 -56 12 -148 0 -92 -4 -140 -12 -148 -9 -9 -3
-12 30 -12 39 0 42 2 32 19 -13 26 -13 256 0 282 10 17 7 19 -32 19 -33 0 -39
-3 -30 -12z"/>
<path d="M1890 1370 c19 -5 45 -20 57 -35 l23 -26 0 26 c0 29 -31 46 -83 44
l-32 -1 35 -8z"/>
<path d="M2255 1376 c6 -2 22 -7 37 -10 15 -4 39 -19 53 -34 24 -25 25 -26 25
-6 0 31 -23 46 -78 50 -26 2 -42 2 -37 0z"/>
<path d="M2570 1361 c13 -26 13 -256 0 -282 -10 -17 -7 -19 30 -19 37 0 40 2
30 19 -13 24 -13 225 -1 269 l10 32 -40 0 c-36 0 -39 -2 -29 -19z"/>
<path d="M2844 1346 c6 -19 12 -33 15 -31 2 3 49 -53 105 -123 l101 -127 3 36
c2 28 -3 43 -22 64 -14 15 -58 69 -98 121 -51 65 -79 94 -94 94 -19 0 -20 -3
-10 -34z"/>
<path d="M3036 1372 c6 -4 15 -15 20 -24 8 -15 10 -14 21 8 11 23 10 24 -20
24 -18 0 -27 -4 -21 -8z"/>
<path d="M3425 1373 c11 -2 29 -6 41 -8 11 -3 33 -17 47 -31 l27 -27 0 26 c0
29 -40 48 -99 46 -20 -1 -27 -3 -16 -6z"/>
<path d="M4005 1220 l0 -160 108 0 107 0 0 27 c0 26 0 26 -20 8 -14 -12 -41
-20 -80 -23 l-60 -4 0 151 0 151 49 0 c34 0 56 -6 75 -21 l26 -20 0 25 0 26
-102 0 -103 0 0 -160z"/>
<path d="M4418 1234 c2 -101 -1 -150 -9 -160 -10 -12 1 -14 72 -12 67 1 75 2
39 7 l-45 6 -3 148 -3 147 33 0 c42 0 93 -31 111 -67 38 -73 28 -175 -20 -212
-18 -15 -21 -21 -10 -21 26 0 74 48 92 92 23 58 13 118 -26 163 -36 41 -80 55
-169 55 l-65 0 3 -146z"/>
<path d="M5042 1371 c40 -8 88 -36 88 -51 0 -6 5 -10 10 -10 15 0 12 36 -4 49
-8 7 -41 14 -73 16 -46 4 -51 3 -21 -4z"/>
<path d="M5368 1368 c8 -8 12 -56 12 -148 0 -92 -4 -140 -12 -148 -9 -9 14
-12 105 -12 l117 0 0 25 c0 30 -4 31 -30 5 -15 -15 -33 -20 -75 -20 l-55 0 0
150 0 150 49 0 c34 0 56 -6 75 -21 l26 -20 0 25 0 26 -112 0 c-87 0 -109 -3
-100 -12z"/>
<path d="M2191 1346 c-17 -18 -22 -33 -19 -62 3 -38 6 -40 81 -79 83 -43 99
-65 79 -111 -11 -22 -10 -23 8 -12 29 18 45 65 34 96 -7 20 -29 37 -87 65 -43
21 -81 45 -84 54 -3 9 -1 29 4 44 14 35 12 35 -16 5z"/>
<path d="M1783 1325 c-24 -50 -8 -77 69 -116 77 -38 98 -56 98 -82 0 -11 -8
-29 -17 -40 -17 -19 -17 -20 3 -9 28 15 41 32 49 63 9 37 -33 83 -94 104 -62
20 -85 45 -79 85 6 40 -8 38 -29 -5z"/>
<path d="M3326 1334 c-34 -32 -46 -63 -46 -117 0 -87 52 -142 146 -152 l49 -6
-40 15 c-22 8 -52 29 -67 45 -50 56 -62 168 -22 212 27 29 12 32 -20 3z"/>
<path d="M4931 1335 c-56 -48 -65 -151 -19 -211 26 -32 92 -64 133 -63 28 1
27 2 -13 16 -67 23 -97 76 -97 169 0 57 4 76 19 93 26 29 14 26 -23 -4z"/>
<path d="M4165 1250 c-3 -5 -25 -11 -48 -12 l-42 -1 40 -4 c22 -3 45 -9 52
-15 10 -8 13 -4 13 16 0 27 -5 33 -15 16z"/>
<path d="M5530 1250 c-8 -5 -33 -10 -55 -11 l-40 -2 45 -6 c25 -4 51 -10 58
-14 8 -6 12 -1 12 17 0 29 0 29 -20 16z"/>
<path d="M3523 1170 c8 -22 8 -38 0 -60 -9 -23 -8 -29 0 -24 35 20 47 40 47
76 0 35 -2 38 -29 38 -28 0 -29 -1 -18 -30z"/>
<path d="M5125 1141 c0 -52 2 -58 17 -50 23 13 29 24 34 70 5 37 4 39 -23 39
-27 0 -28 -1 -28 -59z"/>
<path d="M1770 1122 c0 -37 24 -51 95 -58 22 -2 31 -1 20 2 -48 13 -71 27 -92
57 l-23 32 0 -33z"/>
<path d="M2160 1121 c0 -36 22 -49 99 -56 l46 -4 -40 8 c-27 6 -50 20 -72 46
l-33 38 0 -32z"/>
<path d="M2844 1095 c-10 -33 -10 -35 13 -35 15 0 22 4 18 11 -4 6 -10 21 -14
35 -6 23 -7 22 -17 -11z"/>
<path d="M995 1095 c-5 -11 -10 -23 -12 -27 -2 -5 10 -8 28 -8 28 0 31 2 17
13 -9 6 -18 19 -21 27 -4 12 -6 11 -12 -5z"/>
</g>
</svg>
